<svg width="13" height="13" viewBox="0 0 13 13" fill="none" xmlns="http://www.w3.org/2000/svg">
<path d="M7.16637 10V4.07L9.34637 5.885C9.44847 5.96987 9.58011 6.0107 9.71233 5.99851C9.84454 5.98632 9.9665 5.92211 10.0514 5.82C10.1362 5.71789 10.1771 5.58625 10.1649 5.45404C10.1527 5.32183 10.0885 5.19987 9.98637 5.115L6.98637 2.615C6.9625 2.59818 6.93744 2.58314 6.91137 2.57C6.88637 2.57 6.87137 2.57 6.84637 2.535C6.78904 2.51234 6.72801 2.50047 6.66637 2.5C6.60472 2.50047 6.5437 2.51234 6.48637 2.535C6.46137 2.535 6.44637 2.535 6.42137 2.57C6.3953 2.58314 6.37023 2.59818 6.34637 2.615L3.34637 5.115C3.28993 5.16201 3.24453 5.22088 3.21342 5.28742C3.18231 5.35397 3.16625 5.42654 3.16637 5.5C3.16614 5.61683 3.20683 5.73004 3.28137 5.82C3.32334 5.87063 3.37489 5.91248 3.43306 5.94316C3.49124 5.97383 3.55489 5.99273 3.62038 5.99877C3.68587 6.00481 3.7519 5.99787 3.81471 5.97834C3.87751 5.95882 3.93584 5.9271 3.98637 5.885L6.16637 4.07L6.16637 10C6.16637 10.1326 6.21904 10.2598 6.31281 10.3536C6.40658 10.4473 6.53376 10.5 6.66637 10.5C6.79897 10.5 6.92615 10.4473 7.01992 10.3536C7.11369 10.2598 7.16637 10.1326 7.16637 10Z" fill="currentColor"/>
</svg>
