<svg width="25" height="24" viewBox="0 0 25 24" fill="none" xmlns="http://www.w3.org/2000/svg">
<path fill-rule="evenodd" clip-rule="evenodd" d="M18.7695 8H17.7695V6C17.7695 3.24 15.5295 1 12.7695 1C10.0095 1 7.76947 3.24 7.76947 6V8H6.76947C5.66947 8 4.76947 8.9 4.76947 10V20C4.76947 21.1 5.66947 22 6.76947 22H18.7695C19.8695 22 20.7695 21.1 20.7695 20V10C20.7695 8.9 19.8695 8 18.7695 8ZM12.7695 2.9C14.4795 2.9 15.8695 4.29 15.8695 6V8H9.76947V6H9.66947C9.66947 4.29 11.0595 2.9 12.7695 2.9ZM18.7695 20H6.76947V10H18.7695V20ZM12.7695 17C13.8695 17 14.7695 16.1 14.7695 15C14.7695 13.9 13.8695 13 12.7695 13C11.6695 13 10.7695 13.9 10.7695 15C10.7695 16.1 11.6695 17 12.7695 17Z" fill="#E5E5E5"/>
</svg>
