<svg width="40" height="40" viewBox="0 0 40 40" fill="none" xmlns="http://www.w3.org/2000/svg">
<path d="M13.1144 25.7665L11.6667 36.6666L19.314 32.0782C19.5634 31.9285 19.6881 31.8537 19.8213 31.8245C19.939 31.7986 20.061 31.7986 20.1787 31.8245C20.3119 31.8537 20.4366 31.9285 20.686 32.0782L28.3333 36.6666L26.8865 25.7618M27.3765 7.08139C27.6339 7.70392 28.1279 8.19875 28.7501 8.45709L30.9315 9.36072C31.5541 9.61861 32.0487 10.1132 32.3066 10.7358C32.5645 11.3584 32.5645 12.0579 32.3066 12.6805L31.4036 14.8605C31.1457 15.4834 31.1453 16.1836 31.4045 16.8062L32.3058 18.9855C32.4337 19.2939 32.4995 19.6244 32.4996 19.9582C32.4996 20.292 32.4339 20.6225 32.3062 20.9309C32.1784 21.2393 31.9912 21.5195 31.7551 21.7555C31.519 21.9915 31.2388 22.1787 30.9304 22.3064L28.7504 23.2093C28.1279 23.4667 27.6331 23.9608 27.3748 24.583L26.4712 26.7645C26.2133 27.3871 25.7187 27.8818 25.0961 28.1396C24.4736 28.3975 23.7741 28.3975 23.1515 28.1396L20.9716 27.2367C20.349 26.9794 19.6498 26.9799 19.0276 27.2381L16.8461 28.1404C16.2239 28.3977 15.525 28.3975 14.903 28.1398C14.2809 27.8822 13.7866 27.3881 13.5285 26.7662L12.6246 24.584C12.3673 23.9615 11.8732 23.4666 11.2511 23.2083L9.06958 22.3047C8.44729 22.0469 7.95282 21.5526 7.69485 20.9303C7.43689 20.3081 7.43654 19.6089 7.69388 18.9864L8.59683 16.8064C8.85407 16.1838 8.85354 15.4846 8.59537 14.8624L7.69372 12.6792C7.56588 12.3709 7.50005 12.0404 7.5 11.7065C7.49995 11.3727 7.56567 11.0422 7.6934 10.7338C7.82114 10.4254 8.00839 10.1452 8.24446 9.90919C8.48053 9.67319 8.76078 9.48603 9.06921 9.35838L11.2491 8.4554C11.8711 8.19822 12.3656 7.70475 12.6241 7.08332L13.5277 4.90176C13.7856 4.27918 14.2802 3.78454 14.9028 3.52666C15.5253 3.26878 16.2248 3.26878 16.8474 3.52666L19.0273 4.42965C19.6499 4.68689 20.3491 4.68637 20.9713 4.42819L23.1537 3.52806C23.7762 3.27033 24.4755 3.27038 25.098 3.52821C25.7204 3.78604 26.215 4.28054 26.4729 4.90296L27.3767 7.08516L27.3765 7.08139Z" stroke="currentColor" stroke-width="2" stroke-linecap="square"/>
</svg>
