<svg width="40" height="40" viewBox="0 0 40 40" fill="none" xmlns="http://www.w3.org/2000/svg">
<path d="M18.8051 5.75561C19.1892 4.97738 19.3813 4.58826 19.642 4.46394C19.8689 4.35577 20.1325 4.35577 20.3593 4.46394C20.6201 4.58826 20.8121 4.97738 21.1963 5.75561L24.8408 13.1389C24.9542 13.3686 25.0109 13.4835 25.0937 13.5727C25.1671 13.6517 25.2551 13.7157 25.3528 13.7611C25.4632 13.8125 25.59 13.831 25.8435 13.868L33.9956 15.0596C34.8541 15.1851 35.2833 15.2478 35.482 15.4575C35.6548 15.6399 35.7361 15.8906 35.7032 16.1397C35.6654 16.426 35.3546 16.7287 34.7331 17.334L28.8364 23.0774C28.6526 23.2565 28.5607 23.346 28.5014 23.4525C28.4489 23.5468 28.4152 23.6504 28.4022 23.7576C28.3875 23.8786 28.4092 24.0051 28.4526 24.258L29.8439 32.3703C29.9907 33.2259 30.064 33.6537 29.9261 33.9076C29.8062 34.1285 29.5929 34.2834 29.3458 34.3292C29.0617 34.3819 28.6775 34.1798 27.9092 33.7758L20.6213 29.9431C20.3942 29.8237 20.2807 29.764 20.1611 29.7406C20.0551 29.7198 19.9462 29.7198 19.8403 29.7406C19.7207 29.764 19.6072 29.8237 19.3801 29.9431L12.0922 33.7758C11.3238 34.1798 10.9397 34.3819 10.6556 34.3292C10.4085 34.2834 10.1952 34.1285 10.0752 33.9076C9.93732 33.6537 10.0107 33.2259 10.1574 32.3703L11.5488 24.258C11.5922 24.0051 11.6139 23.8786 11.5992 23.7576C11.5862 23.6504 11.5525 23.5468 11.5 23.4525C11.4407 23.346 11.3488 23.2565 11.165 23.0774L5.26825 17.334C4.64676 16.7287 4.33601 16.426 4.29819 16.1397C4.26529 15.8906 4.34657 15.6399 4.5194 15.4575C4.71804 15.2478 5.14727 15.1851 6.00572 15.0596L14.1578 13.868C14.4114 13.831 14.5381 13.8125 14.6485 13.7611C14.7463 13.7157 14.8343 13.6517 14.9076 13.5727C14.9905 13.4835 15.0472 13.3686 15.1606 13.1389L18.8051 5.75561Z" stroke="currentColor" stroke-width="2" stroke-linecap="round"/>
</svg>
