<svg width="21" height="20" viewBox="0 0 21 20" fill="none" xmlns="http://www.w3.org/2000/svg">
<path d="M14.6663 8.33333V6.66667C14.6663 4.36548 12.8009 2.5 10.4997 2.5C8.19849 2.5 6.33301 4.36548 6.33301 6.66667V8.33333M10.4997 12.0833V13.75M7.83301 17.5H13.1663C14.5665 17.5 15.2665 17.5 15.8013 17.2275C16.2717 16.9878 16.6542 16.6054 16.8939 16.135C17.1663 15.6002 17.1663 14.9001 17.1663 13.5V12.3333C17.1663 10.9332 17.1663 10.2331 16.8939 9.69836C16.6542 9.22795 16.2717 8.8455 15.8013 8.60582C15.2665 8.33333 14.5665 8.33333 13.1663 8.33333H7.83301C6.43288 8.33333 5.73281 8.33333 5.19803 8.60582C4.72763 8.8455 4.34517 9.22795 4.10549 9.69836C3.83301 10.2331 3.83301 10.9332 3.83301 12.3333V13.5C3.83301 14.9001 3.83301 15.6002 4.10549 16.135C4.34517 16.6054 4.72763 16.9878 5.19803 17.2275C5.73281 17.5 6.43288 17.5 7.83301 17.5Z" stroke="#35B782" stroke-width="1.42857" stroke-linecap="square"/>
</svg>
