<svg width="40" height="40" viewBox="0 0 40 40" fill="none" xmlns="http://www.w3.org/2000/svg">
<path d="M11.6673 36.6666V18.3333M3.33398 21.6666V33.3333C3.33398 35.1742 4.82637 36.6666 6.66732 36.6666H29.0444C31.5122 36.6666 33.611 34.866 33.9862 32.4269L35.7811 20.7602C36.2471 17.7314 33.9037 14.9999 30.8393 14.9999H25.0007C24.0802 14.9999 23.334 14.2537 23.334 13.3333V7.44298C23.334 5.17324 21.494 3.33325 19.2243 3.33325C18.6829 3.33325 18.1923 3.65208 17.9724 4.14679L12.1072 17.3435C11.8397 17.9454 11.2428 18.3333 10.5842 18.3333H6.66732C4.82637 18.3333 3.33398 19.8256 3.33398 21.6666Z" stroke="currentColor" stroke-width="2" stroke-linecap="square"/>
</svg>
