<svg width="92" height="24" viewBox="0 0 92 24" fill="none" xmlns="http://www.w3.org/2000/svg">
<path d="M90.7689 16.2166C90.2157 15.1041 89.2014 14.3532 87.0807 13.4539C85.3472 12.7216 84.4712 12.2209 83.9364 11.6369C83.503 11.1641 83.374 10.7747 83.4201 10.0701C83.4569 9.41192 83.6229 9.02255 84.0286 8.58683C84.5542 8.02132 85.2734 7.82664 86.1402 8.01205C87.5601 8.30871 88.4638 9.30067 89.2475 11.3866C89.5241 12.1282 89.561 12.156 90.0589 11.9706L90.3724 11.8501L90.3632 10.9972C90.354 10.5244 90.3356 9.53244 90.3079 8.80006L90.271 7.43727L90.0313 7.33529C88.7312 6.77905 86.26 6.43603 84.6556 6.58437C82.8299 6.75124 81.4837 7.33529 80.451 8.41069C79.4275 9.47681 78.9573 10.7376 79.0403 12.2302C79.1048 13.4632 79.4736 14.3532 80.2297 15.1227C80.9305 15.8458 81.5206 16.1888 83.208 16.847C85.9281 17.9131 86.6565 18.5528 86.6473 19.8692C86.6473 20.9817 86.0572 21.7975 84.9876 22.1776C84.6095 22.3167 83.6414 22.3167 83.125 22.1776C81.7696 21.8161 80.7369 20.6387 79.8517 18.4508L79.6211 17.8946L79.3537 17.9039C79.2062 17.9131 79.0034 17.9595 78.9112 18.0058L78.7267 18.0893L78.7452 19.0441C78.7544 19.5726 78.7821 20.6758 78.8005 21.5101L78.8374 23.012L79.1417 23.1418C79.7595 23.4106 81.622 23.8185 82.7838 23.9483C82.9314 23.9669 83.7243 23.9669 84.5542 23.9576C85.9926 23.9391 86.0941 23.9298 86.8225 23.7444C88.9617 23.1789 90.3448 21.983 90.9533 20.1659C91.1377 19.6097 91.1654 19.4335 91.1931 18.6084C91.23 17.5145 91.1285 16.9397 90.7689 16.2166Z" fill="#FCFCFC"/>
<path d="M74.2456 7.19488C72.4475 6.28635 69.6629 6.35125 67.6251 7.35248C65.698 8.29809 64.3703 9.8741 63.6326 12.0991C63.2453 13.2579 63.1255 14.1942 63.1623 15.6961C63.19 16.6417 63.2269 17.133 63.3283 17.578C64.0844 20.9896 66.4172 23.3073 69.6629 23.9006C70.3821 24.0304 72.0049 24.0304 72.7334 23.9099C73.7661 23.7245 74.9556 23.2702 75.7116 22.7511C76.6245 22.1299 77.5742 21.1936 77.5742 20.8969C77.5742 20.7208 77.2607 20.3129 77.1224 20.3129C77.0671 20.3129 76.8089 20.4427 76.5599 20.6096C75.6655 21.1936 74.808 21.4346 73.6093 21.4346C71.9681 21.4346 70.9169 21.0175 69.875 19.9606C69.4139 19.4878 69.2203 19.2375 68.9806 18.7647C68.455 17.7356 68.1692 16.5583 68.1231 15.2233L68.1046 14.6485L77.8047 14.6114L77.8232 14.2777C77.8324 14.0923 77.8139 13.6195 77.7678 13.2208C77.4636 10.2542 76.2741 8.21465 74.2456 7.19488ZM69.3586 13.2023L68.1323 13.2208V12.952C68.1323 12.8036 68.1784 12.4143 68.2245 12.0898C68.6302 9.43838 69.6168 7.84383 70.8524 7.84383C71.9865 7.84383 72.6873 9.41057 72.8348 12.2845L72.8717 13.1003L71.7283 13.1374C71.1013 13.1652 70.0317 13.193 69.3586 13.2023Z" fill="#FCFCFC"/>
<path d="M56.6672 6.87982C56.28 6.79638 55.9296 6.78711 55.1827 6.80565C54.0486 6.84274 53.274 7.01888 52.4257 7.40825C52.1491 7.53804 51.9002 7.64929 51.8817 7.64929C51.8633 7.64929 51.8633 5.92494 51.8909 3.82977C51.9186 0.863153 51.9094 0.000980306 51.8448 0.000980306C51.6328 0.000980306 44.9386 1.28033 44.8648 1.33596C44.8095 1.38231 44.791 1.52137 44.8003 1.7346C44.8187 2.10542 44.7818 2.07761 45.5932 2.26302C45.8422 2.31865 46.128 2.4299 46.2295 2.50406C46.5061 2.69875 46.7274 3.1252 46.8841 3.72779C47.004 4.2006 47.0224 4.54361 47.0778 7.77908C47.1331 11.0794 47.1239 14.4632 47.0317 20.6746L46.9948 23.2518L47.4743 23.3631C48.1658 23.5207 50.1575 23.8544 50.8029 23.9193C51.7526 24.0213 53.984 24.0028 54.6848 23.9008C57.7645 23.4372 60.0789 21.6387 61.1577 18.8946C61.4435 18.1622 61.7202 17.0405 61.8124 16.2154C61.923 15.242 61.8585 13.2859 61.6925 12.4978C61.0563 9.48488 59.1937 7.40825 56.6672 6.87982ZM51.9924 22.436C51.9094 22.2135 51.808 14.491 51.8448 11.4039L51.8725 8.99353L52.3059 8.86374C52.5917 8.78031 52.9329 8.73396 53.3294 8.73396C53.8826 8.73396 53.9564 8.7525 54.4266 8.98426C55.5515 9.5405 56.3261 10.9404 56.6857 13.0541C56.8148 13.8328 56.8332 15.9744 56.7133 16.9107C56.4183 19.2098 55.6714 21.0732 54.6756 21.9725C54.2791 22.334 53.9103 22.5194 53.4308 22.6122C53.0896 22.677 52.979 22.677 52.3612 22.6307C52.103 22.6122 52.0477 22.5843 51.9924 22.436Z" fill="#FCFCFC"/>
<path d="M44.1579 6.52787C43.3926 6.52787 42.9869 6.61131 42.3691 6.8987C41.2442 7.41786 40.4051 8.26149 39.649 9.63355L39.4092 10.06L39.4369 9.2998C39.4553 8.88262 39.483 8.10388 39.5014 7.56619L39.5291 6.59277H39.3724C39.1695 6.59277 32.6689 7.89993 32.4753 7.98337C32.3462 8.03899 32.3278 8.09461 32.3278 8.40982C32.3278 8.73429 32.3462 8.77137 32.4753 8.79919C32.5583 8.81773 32.8534 8.87335 33.1392 8.92898C33.7109 9.04022 33.8861 9.13293 34.1258 9.44813C34.5592 10.0322 34.6514 11.052 34.6514 15.3999C34.6514 18.9506 34.5776 20.7213 34.4024 21.2775C34.1996 21.9543 33.8307 22.3066 33.1945 22.4178C32.9917 22.4549 32.715 22.5105 32.5952 22.5383L32.3647 22.5847L32.3462 23.0389C32.337 23.3541 32.3554 23.5117 32.4108 23.5488C32.4569 23.5766 34.679 23.5952 37.3438 23.5859L42.1939 23.5674L42.2123 23.0575C42.2215 22.7794 42.2123 22.5476 42.1754 22.5476C41.7974 22.5476 40.6448 22.39 40.4604 22.3158C39.9164 22.0841 39.649 21.5927 39.5383 20.5915C39.4 19.4141 39.3263 16.4846 39.3631 14.0927C39.4 11.6731 39.4 11.6638 39.5476 11.497C39.8979 11.1169 40.7923 10.8202 41.5853 10.8202C42.2215 10.8202 42.8854 10.9871 43.5862 11.3208C43.9274 11.4877 44.2316 11.5989 44.2777 11.5897C44.37 11.5526 45.9559 7.32515 45.9559 7.13046C45.9651 6.82453 45.0615 6.52787 44.1579 6.52787Z" fill="#FCFCFC"/>
<path d="M32.3373 13.8795C31.9961 10.95 30.7606 8.80845 28.7228 7.60326C26.4637 6.26828 23.0244 6.18485 20.581 7.41785C18.8198 8.30783 17.3722 10.0229 16.736 11.9883C16.0721 14.0186 16.0721 16.6885 16.736 18.7652C17.1601 20.0909 17.7318 21.0643 18.617 21.945C19.6773 23.0019 21.0697 23.6786 22.6556 23.9104C23.2273 23.9938 25.0161 23.9938 25.6062 23.9104C25.8828 23.8733 26.3623 23.762 26.6758 23.6786C29.5619 22.835 31.5259 20.61 32.199 17.4209C32.3742 16.6607 32.4387 14.7695 32.3373 13.8795ZM25.0438 22.6496C23.255 23.1873 21.9733 21.4722 21.4754 17.8752C21.3186 16.7163 21.3186 13.5458 21.4754 12.2201C21.8258 9.32761 22.7109 7.86284 24.1125 7.85357C24.7395 7.85357 25.0899 8.01117 25.5878 8.50251C26.7588 9.68916 27.3213 11.9605 27.312 15.5297C27.3028 18.3758 27.0262 20.165 26.39 21.3795C26.0765 21.9635 25.5048 22.5105 25.0438 22.6496Z" fill="#FCFCFC"/>
<path d="M8.76698 1.88174H10.8561C13.2531 1.88174 13.6448 1.92938 14.4935 2.35814C15.7246 2.97746 16.62 4.19705 17.4127 6.32181C17.7298 7.18886 17.7298 7.17933 18.4387 6.96018L18.9143 6.81726L18.8677 3.69207C18.8397 1.97702 18.8024 0.443004 18.7837 0.290556L18.7371 0.0237705L9.58772 0.00471446C4.55137 -0.00481358 0.335757 0.00471447 0.223838 0.0237705L0 0.0618827L0.0373063 1.16714L0.7368 1.25289C1.64148 1.36722 2.18242 1.62448 2.49952 2.10088C3.21767 3.17755 3.34824 4.64487 3.34824 11.6003C3.34824 19.0132 3.19902 20.814 2.49952 21.7477C2.13579 22.2336 1.84666 22.3861 1.03525 22.5385C-0.0279799 22.7386 0.00932658 22.71 0.00932658 23.2722C0.00932658 23.5866 0.0373063 23.7486 0.0932658 23.7772C0.214511 23.8248 11.9194 23.8343 12.0406 23.7772C12.1992 23.7105 12.1898 22.8339 12.0313 22.7481C11.966 22.71 11.5743 22.6338 11.1546 22.5671C10.7349 22.5004 10.2686 22.3956 10.1287 22.3289C9.36389 21.9859 8.93486 21.0426 8.77631 19.3371C8.66439 18.1175 8.57113 15.8594 8.57113 14.192V12.6675L9.27995 12.6865C10.8002 12.7342 11.5836 12.8199 11.9007 12.9628C12.5909 13.2773 13.1412 14.1348 13.4303 15.3449L13.5795 15.9928L14.6614 16.0309V7.90346L13.5795 7.94157L13.4209 8.57995C13.1132 9.82812 12.6189 10.5904 11.8821 10.9429C11.5836 11.0858 11.3691 11.1239 10.651 11.1716C10.1753 11.2002 9.51311 11.2287 9.16803 11.2287H8.55247V9.2088C8.55247 7.18886 8.65507 2.90124 8.72968 2.23428L8.76698 1.88174Z" fill="#FCFCFC"/>
</svg>
