<svg width="191" height="24" viewBox="0 0 191 24" fill="none" xmlns="http://www.w3.org/2000/svg">
<path d="M100.422 22.7869H102.388L104.252 18.5474H111.031L112.894 22.7869H114.881L108.43 8.24577H106.853L100.422 22.7869ZM104.989 16.8271L107.631 10.8263L110.273 16.8271H104.989Z" fill="white"/>
<path d="M116.924 22.7869H121.102C125.567 22.7869 128.844 19.6738 128.844 15.5163C128.844 11.3588 125.567 8.24577 121.102 8.24577H116.924V22.7869ZM118.829 21.0051V10.0276H121.102C124.605 10.0276 126.919 12.3623 126.919 15.5163C126.919 18.6703 124.605 21.0051 121.102 21.0051H118.829Z" fill="white"/>
<path d="M135.669 22.7869H137.266L143.452 8.24577H141.383L136.488 19.7967L131.573 8.24577H129.463L135.669 22.7869Z" fill="white"/>
<path d="M145.585 22.7869H147.49V8.24577H145.585V22.7869Z" fill="white"/>
<path d="M150.157 20.4111C150.915 21.9062 152.861 23.0326 155.257 23.0326C157.96 23.0326 159.886 21.4761 159.886 18.998C159.886 16.8475 158.657 15.6187 156.506 14.7995L154.745 14.1237C153.27 13.5707 152.554 13.0177 152.554 11.7889C152.554 10.5805 153.741 9.7818 155.175 9.7818C156.424 9.7818 157.325 10.3348 158.063 11.2154L159.455 9.9866C158.554 8.81922 157.039 8 155.216 8C152.615 8 150.669 9.49507 150.669 11.8708C150.669 13.8574 151.693 15.0453 153.967 15.885L155.892 16.6223C157.244 17.1343 157.981 17.9125 157.981 19.0799C157.981 20.4316 156.793 21.2508 155.298 21.2508C153.659 21.2508 152.472 20.4931 151.693 19.2642L150.157 20.4111Z" fill="white"/>
<path d="M176.715 15.5163C176.715 11.2974 173.397 8 169.198 8C165.02 8 161.682 11.2974 161.682 15.5163C161.682 19.7353 165.02 23.0326 169.198 23.0326C173.397 23.0326 176.715 19.7353 176.715 15.5163ZM163.607 15.5163C163.607 12.3214 166.024 9.80228 169.198 9.80228C172.393 9.80228 174.81 12.3214 174.81 15.5163C174.81 18.7113 172.393 21.2304 169.198 21.2304C166.024 21.2304 163.607 18.7113 163.607 15.5163Z" fill="white"/>
<path d="M179.586 22.7869H181.49V16.1717H182.904L188.495 22.7869H190.891L185.3 16.1512C187.532 15.8235 188.884 14.3899 188.884 12.2599C188.884 9.86372 187.225 8.24577 184.542 8.24577H179.586V22.7869ZM181.49 14.4718V10.0071H184.317C185.976 10.0071 186.979 10.7853 186.979 12.2599C186.979 13.714 185.976 14.4718 184.317 14.4718H181.49Z" fill="white"/>
<path d="M91.2614 16.2156C90.7052 15.1031 89.6854 14.3522 87.5531 13.453C85.8102 12.7206 84.9295 12.22 84.3918 11.6359C83.9561 11.1631 83.8263 10.7737 83.8727 10.0692C83.9097 9.41094 84.0766 9.02158 84.4845 8.58586C85.0129 8.02034 85.7361 7.82566 86.6075 8.01107C88.0352 8.30774 88.9437 9.2997 89.7317 11.3856C90.0098 12.1273 90.0469 12.1551 90.5475 11.9697L90.8628 11.8491L90.8535 10.9962C90.8442 10.5234 90.8257 9.53146 90.7979 8.79908L90.7608 7.43629L90.5197 7.33431C89.2126 6.77807 86.728 6.43506 85.1149 6.58339C83.2793 6.75026 81.9258 7.33431 80.8875 8.40971C79.8584 9.47584 79.3856 10.7367 79.4691 12.2292C79.534 13.4622 79.9048 14.3522 80.665 15.1217C81.3696 15.8448 81.9629 16.1878 83.6594 16.846C86.3943 17.9122 87.1267 18.5518 87.1174 19.8683C87.1174 20.9807 86.5241 21.7966 85.4487 22.1767C85.0686 22.3157 84.0951 22.3157 83.576 22.1767C82.2132 21.8151 81.1749 20.6377 80.2849 18.4499L80.0531 17.8936L79.7843 17.9029C79.6359 17.9122 79.432 17.9585 79.3393 18.0049L79.1539 18.0883L79.1724 19.0432C79.1817 19.5716 79.2095 20.6748 79.228 21.5092L79.2651 23.011L79.5711 23.1408C80.1922 23.4097 82.0649 23.8176 83.233 23.9474C83.3813 23.9659 84.1786 23.9659 85.0129 23.9566C86.4592 23.9381 86.5611 23.9288 87.2935 23.7434C89.4443 23.1779 90.8349 21.982 91.4468 20.1649C91.6322 19.6087 91.66 19.4325 91.6878 18.6075C91.7249 17.5135 91.6229 16.9387 91.2614 16.2156Z" fill="white"/>
<path d="M74.6484 7.1939C72.8406 6.28538 70.0409 6.35027 67.992 7.3515C66.0545 8.29711 64.7195 9.87313 63.9778 12.0981C63.5885 13.2569 63.468 14.1933 63.505 15.6951C63.5328 16.6407 63.5699 17.1321 63.6719 17.5771C64.4321 20.9887 66.7776 23.3063 70.0409 23.8997C70.764 24.0295 72.3956 24.0295 73.128 23.9089C74.1663 23.7235 75.3622 23.2693 76.1224 22.7501C77.0402 22.129 77.9951 21.1926 77.9951 20.896C77.9951 20.7198 77.6799 20.3119 77.5408 20.3119C77.4852 20.3119 77.2256 20.4417 76.9753 20.6086C76.0761 21.1926 75.2139 21.4337 74.0087 21.4337C72.3585 21.4337 71.3017 21.0165 70.2541 19.9596C69.7906 19.4868 69.5959 19.2365 69.3548 18.7637C68.8264 17.7347 68.539 16.5573 68.4927 15.2223L68.4741 14.6475L78.2269 14.6104L78.2454 14.2767C78.2547 14.0913 78.2361 13.6185 78.1898 13.2198C77.8838 10.2532 76.6879 8.21368 74.6484 7.1939ZM69.7349 13.2013L68.5019 13.2198V12.951C68.5019 12.8027 68.5483 12.4133 68.5946 12.0888C69.0025 9.43741 69.9945 7.84285 71.2368 7.84285C72.3771 7.84285 73.0816 9.4096 73.23 12.2835L73.267 13.0993L72.1175 13.1364C71.4871 13.1642 70.4117 13.192 69.7349 13.2013Z" fill="white"/>
<path d="M56.9747 6.87884C56.5853 6.79541 56.233 6.78614 55.4821 6.80468C54.3418 6.84176 53.5631 7.0179 52.7102 7.40727C52.4321 7.53706 52.1817 7.64831 52.1632 7.64831C52.1447 7.64831 52.1447 5.92396 52.1725 3.82879C52.2003 0.862176 52.191 3.74406e-06 52.1261 3.74406e-06C51.9129 3.74406e-06 45.1824 1.27936 45.1082 1.33498C45.0526 1.38133 45.0341 1.52039 45.0433 1.73362C45.0619 2.10445 45.0248 2.07663 45.8406 2.26205C46.0909 2.31767 46.3783 2.42892 46.4803 2.50309C46.7584 2.69777 46.9809 3.12422 47.1385 3.72681C47.259 4.19962 47.2776 4.54263 47.3332 7.7781C47.3888 11.0785 47.3795 14.4623 47.2868 20.6736L47.2498 23.2509L47.7318 23.3621C48.4271 23.5197 50.4296 23.8534 51.0785 23.9183C52.0334 24.0203 54.2769 24.0018 54.9815 23.8998C58.0779 23.4363 60.4048 21.6378 61.4895 18.8936C61.7769 18.1613 62.055 17.0395 62.1477 16.2144C62.259 15.241 62.1941 13.2849 62.0272 12.4969C61.3875 9.4839 59.5148 7.40727 56.9747 6.87884ZM52.2745 22.435C52.191 22.2125 52.089 14.4901 52.1261 11.4029L52.1539 8.99256L52.5897 8.86277C52.877 8.77933 53.2201 8.73298 53.6187 8.73298C54.1749 8.73298 54.2491 8.75152 54.7219 8.98329C55.8529 9.53953 56.6317 10.9394 56.9932 13.0531C57.123 13.8319 57.1416 15.9734 57.021 16.9097C56.7244 19.2088 55.9735 21.0722 54.9722 21.9715C54.5736 22.3331 54.2028 22.5185 53.7207 22.6112C53.3777 22.6761 53.2664 22.6761 52.6453 22.6297C52.3857 22.6112 52.3301 22.5834 52.2745 22.435Z" fill="white"/>
<path d="M44.3975 6.52689C43.628 6.52689 43.2201 6.61033 42.5989 6.89772C41.4679 7.41688 40.6243 8.26051 39.8641 9.63257L39.6231 10.059L39.6509 9.29883C39.6694 8.88165 39.6972 8.10291 39.7158 7.56521L39.7436 6.59179H39.586C39.382 6.59179 32.8462 7.89895 32.6515 7.98239C32.5217 8.03801 32.5032 8.09364 32.5032 8.40884C32.5032 8.73332 32.5217 8.7704 32.6515 8.79821C32.7349 8.81675 33.0316 8.87238 33.319 8.928C33.8938 9.03925 34.0699 9.13195 34.311 9.44716C34.7467 10.0312 34.8394 11.051 34.8394 15.3989C34.8394 18.9496 34.7652 20.7203 34.5891 21.2765C34.3851 21.9533 34.0143 22.3056 33.3746 22.4168C33.1707 22.4539 32.8925 22.5095 32.772 22.5373L32.5402 22.5837L32.5217 23.038C32.5124 23.3532 32.531 23.5108 32.5866 23.5479C32.633 23.5757 34.8672 23.5942 37.5464 23.5849L42.4228 23.5664L42.4413 23.0565C42.4506 22.7784 42.4413 22.5466 42.4043 22.5466C42.0242 22.5466 40.8653 22.389 40.6799 22.3149C40.1329 22.0831 39.8641 21.5917 39.7528 20.5905C39.6138 19.4131 39.5396 16.4836 39.5767 14.0918C39.6138 11.6721 39.6138 11.6628 39.7621 11.496C40.1144 11.1159 41.0137 10.8192 41.8109 10.8192C42.4506 10.8192 43.1181 10.9861 43.8227 11.3198C44.1657 11.4867 44.4716 11.598 44.518 11.5887C44.6107 11.5516 46.2052 7.32417 46.2052 7.12949C46.2145 6.82356 45.306 6.52689 44.3975 6.52689Z" fill="white"/>
<path d="M32.5127 13.8785C32.1697 10.949 30.9275 8.80747 28.8786 7.60228C26.6073 6.2673 23.1494 6.18387 20.6926 7.41687C18.9219 8.30685 17.4664 10.0219 16.8268 11.9873C16.1593 14.0176 16.1593 16.6875 16.8268 18.7642C17.2532 20.0899 17.828 21.0633 18.718 21.944C19.7841 23.0009 21.184 23.6776 22.7785 23.9094C23.3533 23.9928 25.1518 23.9928 25.7452 23.9094C26.0233 23.8723 26.5053 23.7611 26.8205 23.6776C29.7223 22.834 31.6969 20.609 32.3737 17.4199C32.5498 16.6597 32.6147 14.7685 32.5127 13.8785ZM25.1796 22.6486C23.3811 23.1863 22.0925 21.4712 21.5919 17.8742C21.4343 16.7154 21.4343 13.5448 21.5919 12.2191C21.9442 9.32663 22.8342 7.86186 24.2433 7.85259C24.8737 7.85259 25.226 8.01019 25.7266 8.50154C26.904 9.68818 27.4695 11.9595 27.4602 15.5287C27.451 18.3748 27.1728 20.1641 26.5332 21.3785C26.218 21.9626 25.6432 22.5095 25.1796 22.6486Z" fill="white"/>
<path d="M8.81455 1.88076H10.915C13.325 1.88076 13.7188 1.9284 14.5721 2.35716C15.8099 2.97649 16.7101 4.19608 17.5072 6.32083C17.826 7.18788 17.826 7.17835 18.5387 6.95921L19.0169 6.81629L18.97 3.69109C18.9419 1.97604 18.9044 0.442028 18.8856 0.289579L18.8388 0.022794L9.63974 0.0037379C4.57606 -0.00579015 0.337579 0.0037379 0.225052 0.022794L0 0.0609061L0.0375087 1.16616L0.740797 1.25191C1.65038 1.36625 2.19426 1.62351 2.51308 2.09991C3.23513 3.17658 3.36641 4.64389 3.36641 11.5994C3.36641 19.0122 3.21637 20.813 2.51308 21.7467C2.14737 22.2327 1.85668 22.3851 1.04087 22.5376C-0.0281316 22.7376 0.00937718 22.7091 0.00937718 23.2712C0.00937718 23.5856 0.0375087 23.7476 0.0937718 23.7762C0.215675 23.8238 11.984 23.8334 12.1059 23.7762C12.2654 23.7095 12.256 22.8329 12.0966 22.7472C12.0309 22.7091 11.6371 22.6328 11.2151 22.5661C10.7931 22.4994 10.3243 22.3946 10.1836 22.3279C9.41469 21.9849 8.98334 21.0417 8.82393 19.3361C8.7114 18.1165 8.61763 15.8584 8.61763 14.191V12.6665L9.33029 12.6856C10.8588 12.7332 11.6465 12.819 11.9653 12.9619C12.6592 13.2763 13.2124 14.1338 13.5031 15.3439L13.6532 15.9918L14.7409 16.0299V7.90248L13.6532 7.9406L13.4938 8.57897C13.1843 9.82715 12.6873 10.5894 11.9465 10.9419C11.6465 11.0849 11.4308 11.123 10.7087 11.1706C10.2305 11.1992 9.56472 11.2278 9.21777 11.2278H8.59888V9.20783C8.59888 7.18788 8.70202 2.90026 8.77704 2.2333L8.81455 1.88076Z" fill="white"/>
</svg>
