<svg width="160" height="25" viewBox="0 0 160 25" fill="none" xmlns="http://www.w3.org/2000/svg">
<path d="M81.2009 20.3034H82.84L84.3937 16.7693H90.0452L91.5995 20.3034H93.2556L87.8767 8.18144H86.5622L81.2009 20.3034ZM85.0087 15.3351L87.2108 10.3327L89.4138 15.3351H85.0087ZM94.9593 20.3034H98.4423C102.164 20.3034 104.897 17.7083 104.897 14.2424C104.897 10.7765 102.164 8.18144 98.4423 8.18144H94.9593V20.3034ZM96.5473 18.8181V9.66678H98.4423C101.362 9.66678 103.292 11.6131 103.292 14.2424C103.292 16.8717 101.362 18.8181 98.4423 18.8181H96.5473ZM110.587 20.3034H111.919L117.075 8.18144H115.35L111.269 17.8107L107.172 8.18144H105.413L110.587 20.3034ZM118.853 20.3034H120.441V8.18144H118.853V20.3034ZM122.666 18.3229C123.297 19.5692 124.92 20.5083 126.917 20.5083C129.171 20.5083 130.776 19.2107 130.776 17.1449C130.776 15.3522 129.752 14.3278 127.958 13.6449L126.49 13.0814C125.261 12.6204 124.663 12.1595 124.663 11.1351C124.663 10.1278 125.654 9.46194 126.849 9.46194C127.89 9.46194 128.642 9.92293 129.257 10.6571L130.418 9.63262C129.666 8.65949 128.403 7.97656 126.883 7.97656C124.714 7.97656 123.093 9.22294 123.093 11.2034C123.093 12.8595 123.946 13.8497 125.842 14.5497L127.446 15.1643C128.573 15.5912 129.188 16.24 129.188 17.2132C129.188 18.34 128.197 19.0229 126.951 19.0229C125.586 19.0229 124.595 18.3913 123.946 17.3668L122.666 18.3229ZM144.806 14.2424C144.806 10.7254 142.04 7.97656 138.54 7.97656C135.057 7.97656 132.273 10.7254 132.273 14.2424C132.273 17.7595 135.057 20.5083 138.54 20.5083C142.04 20.5083 144.806 17.7595 144.806 14.2424ZM133.878 14.2424C133.878 11.579 135.893 9.47901 138.54 9.47901C141.203 9.47901 143.218 11.579 143.218 14.2424C143.218 16.9059 141.203 19.0059 138.54 19.0059C135.893 19.0059 133.878 16.9059 133.878 14.2424ZM147.2 20.3034H148.788V14.7887H149.967L154.628 20.3034H156.626L151.964 14.7717C153.825 14.4985 154.952 13.3034 154.952 11.5278C154.952 9.53024 153.569 8.18144 151.332 8.18144H147.2V20.3034ZM148.788 13.3717V9.6497H151.144C152.528 9.6497 153.364 10.2985 153.364 11.5278C153.364 12.74 152.528 13.3717 151.144 13.3717H148.788Z" fill="white"/>
<path d="M76.1752 14.0759C75.7156 13.1566 74.8729 12.5361 73.1108 11.793C71.6705 11.1878 70.9427 10.7741 70.4983 10.2915C70.1382 9.90082 70.031 9.57906 70.0693 8.99688C70.0999 8.45298 70.2378 8.13123 70.5749 7.77119C71.0116 7.30388 71.6092 7.14301 72.3293 7.29622C73.5091 7.54136 74.26 8.36105 74.9112 10.0847C75.141 10.6975 75.1716 10.7205 75.5854 10.5673L75.8458 10.4677L75.8382 9.76297C75.8306 9.37225 75.8152 8.55257 75.7922 7.94738L75.7616 6.82127L75.5624 6.737C74.4821 6.27736 72.4289 5.99392 71.0959 6.11649C69.579 6.25438 68.4604 6.737 67.6024 7.62563C66.752 8.5066 66.3612 9.54844 66.4302 10.7818C66.4838 11.8006 66.7902 12.5361 67.4185 13.1719C68.0008 13.7694 68.491 14.0529 69.893 14.5968C72.1531 15.4778 72.7583 16.0063 72.7507 17.0942C72.7507 18.0134 72.2604 18.6875 71.3717 19.0016C71.0576 19.1166 70.2531 19.1166 69.8241 19.0016C68.6979 18.7029 67.8398 17.73 67.1044 15.9221L66.9128 15.4624L66.6907 15.4701C66.5681 15.4778 66.3995 15.516 66.3229 15.5544L66.1697 15.6233L66.185 16.4123C66.1927 16.849 66.2157 17.7606 66.231 18.4501L66.2616 19.6911L66.5144 19.7984C67.0278 20.0205 68.5754 20.3575 69.5406 20.4649C69.6632 20.4801 70.3221 20.4801 71.0116 20.4725C72.2067 20.4571 72.2911 20.4495 72.8963 20.2963C74.6737 19.829 75.8228 18.8408 76.3285 17.3393C76.4818 16.8797 76.5047 16.7341 76.5277 16.0523C76.5584 15.1484 76.474 14.6734 76.1752 14.0759Z" fill="white"/>
<path d="M62.4473 6.62145C60.9533 5.87071 58.6396 5.92433 56.9465 6.75168C55.3453 7.53307 54.2421 8.83537 53.6291 10.674C53.3074 11.6315 53.2078 12.4052 53.2385 13.6463C53.2615 14.4276 53.2921 14.8336 53.3763 15.2013C54.0045 18.0204 55.9429 19.9356 58.6396 20.4259C59.2372 20.5331 60.5856 20.5331 61.1908 20.4336C62.0489 20.2804 63.0371 19.905 63.6654 19.4759C64.4238 18.9627 65.213 18.189 65.213 17.9438C65.213 17.7983 64.9525 17.4612 64.8376 17.4612C64.7916 17.4612 64.5771 17.5685 64.3702 17.7064C63.6271 18.189 62.9146 18.3882 61.9187 18.3882C60.5549 18.3882 59.6815 18.0434 58.8158 17.1701C58.4328 16.7794 58.2718 16.5726 58.0726 16.1819C57.636 15.3315 57.3985 14.3586 57.3602 13.2555L57.3448 12.7806L61.3747 12.7652L65.4045 12.75L65.4198 12.4742C65.4275 12.321 65.4122 11.9303 65.3738 11.6009C65.121 9.14941 64.1327 7.46412 62.4473 6.62145ZM58.3868 11.5855L57.3678 11.6009V11.3787C57.3678 11.2561 57.4062 10.9344 57.4444 10.6662C57.7816 8.47531 58.6013 7.15769 59.6279 7.15769C60.5703 7.15769 61.1525 8.45233 61.2751 10.8272L61.3057 11.5013L60.3557 11.5319C59.8348 11.5549 58.946 11.5779 58.3868 11.5855Z" fill="white"/>
<path d="M47.8411 6.36094C47.5193 6.29199 47.2283 6.28433 46.6077 6.29965C45.6653 6.33029 45.0218 6.47585 44.317 6.79759C44.0871 6.90484 43.8802 6.99676 43.865 6.99676C43.8496 6.99676 43.8496 5.57189 43.8726 3.84059C43.8956 1.3892 43.888 0.676758 43.8343 0.676758C43.6581 0.676758 38.0961 1.73392 38.0347 1.77988C37.9888 1.81819 37.9735 1.9331 37.9811 2.10929C37.9965 2.41572 37.9658 2.39274 38.64 2.54595C38.8469 2.59191 39.0843 2.68384 39.1686 2.74512C39.3985 2.906 39.5823 3.25839 39.7125 3.75633C39.8121 4.14702 39.8275 4.43046 39.8735 7.10401C39.9194 9.8312 39.9117 12.6273 39.8351 17.7599L39.8045 19.8896L40.2029 19.9815C40.7775 20.1117 42.4323 20.3875 42.9686 20.4411C43.7577 20.5254 45.6117 20.5101 46.194 20.4259C48.7528 20.0428 50.6758 18.5567 51.5722 16.2891C51.8096 15.6839 52.0394 14.7569 52.1161 14.0752C52.208 13.2708 52.1544 11.6544 52.0165 11.0033C51.4879 8.51356 49.9403 6.79759 47.8411 6.36094ZM43.9569 19.2154C43.888 19.0316 43.8036 12.6503 43.8343 10.0993L43.8573 8.10756L44.2174 8.00031C44.4548 7.93136 44.7383 7.89306 45.0678 7.89306C45.5274 7.89306 45.5887 7.90838 45.9795 8.0999C46.9141 8.55953 47.5577 9.71625 47.8565 11.4629C47.9637 12.1064 47.9791 13.876 47.8795 14.6497C47.6343 16.5495 47.0137 18.0893 46.1863 18.8324C45.8569 19.1312 45.5504 19.2844 45.152 19.361C44.8686 19.4146 44.7766 19.4146 44.2634 19.3764C44.0488 19.361 44.0028 19.338 43.9569 19.2154Z" fill="white"/>
<path d="M37.4472 6.07031C36.8113 6.07031 36.4742 6.13925 35.9609 6.37673C35.0262 6.80573 34.329 7.50285 33.7008 8.63661L33.5016 8.98897L33.5246 8.36083C33.5399 8.01611 33.5629 7.37262 33.5782 6.9283L33.6012 6.12393H33.471C33.3024 6.12393 27.9012 7.20408 27.7404 7.27303C27.6332 7.31899 27.6178 7.36496 27.6178 7.62541C27.6178 7.89353 27.6332 7.92418 27.7404 7.94716C27.8094 7.96248 28.0544 8.00845 28.292 8.05441C28.767 8.14634 28.9126 8.22294 29.1117 8.4834C29.4718 8.96599 29.5484 9.80867 29.5484 13.4015C29.5484 16.3355 29.4871 17.7988 29.3416 18.2584C29.173 18.8175 28.8666 19.1087 28.338 19.2006C28.1694 19.2313 27.9396 19.2772 27.84 19.3002L27.6484 19.3385L27.6332 19.7138C27.6254 19.9743 27.6408 20.1046 27.6868 20.1352C27.725 20.1582 29.5714 20.1735 31.7855 20.1658L35.8154 20.1505L35.8306 19.7292C35.8383 19.4994 35.8306 19.3079 35.8 19.3079C35.4859 19.3079 34.5282 19.1776 34.375 19.1163C33.923 18.9249 33.7008 18.5188 33.6089 17.6914C33.494 16.7185 33.4327 14.2978 33.4633 12.3214C33.4939 10.322 33.4939 10.3142 33.6165 10.1764C33.9077 9.86228 34.6508 9.61721 35.3097 9.61721C35.8383 9.61721 36.3899 9.75506 36.9722 10.0308C37.2556 10.1688 37.5084 10.2606 37.5468 10.253C37.6234 10.2224 38.9411 6.72912 38.9411 6.56825C38.9488 6.31545 38.198 6.07031 37.4472 6.07031Z" fill="white"/>
<path d="M27.6263 12.145C27.3428 9.72424 26.3162 7.95464 24.623 6.95876C22.7461 5.85563 19.8884 5.78669 17.8582 6.80555C16.3949 7.54097 15.1921 8.95816 14.6635 10.5822C14.1119 12.2599 14.1119 14.4662 14.6635 16.1822C15.0159 17.2776 15.4909 18.082 16.2264 18.8097C17.1074 19.683 18.2642 20.2423 19.582 20.4338C20.057 20.5027 21.5433 20.5027 22.0335 20.4338C22.2634 20.4031 22.6618 20.3112 22.9223 20.2423C25.3202 19.5452 26.9521 17.7066 27.5114 15.0713C27.6569 14.4432 27.7105 12.8805 27.6263 12.145ZM21.5663 19.392C20.0799 19.8362 19.015 18.4191 18.6013 15.4467C18.4711 14.4891 18.4711 11.8692 18.6013 10.7737C18.8925 8.38364 19.6279 7.17326 20.7925 7.16559C21.3134 7.16559 21.6045 7.29583 22.0183 7.70184C22.9912 8.6824 23.4586 10.5593 23.4509 13.5086C23.4432 15.8604 23.2134 17.3389 22.6848 18.3425C22.4243 18.8251 21.9493 19.277 21.5663 19.392Z" fill="white"/>
<path d="M7.95935 2.5307H9.67542C11.6444 2.5307 11.9661 2.56901 12.6633 2.91373C13.6746 3.41168 14.4101 4.39223 15.0613 6.10055C15.3218 6.79767 15.3218 6.79001 15.904 6.61381L16.2948 6.4989L16.2564 3.98622C16.2335 2.60731 16.2028 1.37395 16.1876 1.25138L16.1492 1.03688L8.63353 1.02156C4.49647 1.0139 1.03359 1.02156 0.941652 1.03688L0.757782 1.06752L0.773104 1.51184L0.788427 1.95615L1.36302 2.0251C2.10616 2.11703 2.55051 2.32387 2.81099 2.7069C3.40091 3.57254 3.50817 4.75228 3.50817 10.3445C3.50817 16.3045 3.38558 17.7523 2.81099 18.5031C2.5122 18.8938 2.27471 19.0163 1.60818 19.1389C0.734798 19.2998 0.765443 19.2768 0.765443 19.7288C0.765443 19.9816 0.788427 20.1118 0.834394 20.1348C0.93399 20.1731 10.5488 20.1808 10.6484 20.1348C10.7787 20.0812 10.771 19.3764 10.6408 19.3075C10.5871 19.2768 10.2654 19.2155 9.9206 19.1619C9.57583 19.1083 9.19279 19.024 9.07793 18.9704C8.44966 18.6946 8.09725 17.9362 7.96701 16.565C7.87507 15.5844 7.79846 13.7689 7.79846 12.4282V11.2025L8.38072 11.2178C9.62953 11.2562 10.273 11.3251 10.5335 11.44C11.1005 11.6928 11.5525 12.3822 11.7899 13.3551L11.9125 13.8761L12.3569 13.8914L12.8013 13.9067V7.37221L12.3569 7.38753L11.9125 7.40286L11.7823 7.91611C11.5295 8.91963 11.1235 9.53252 10.5182 9.81593C10.273 9.93087 10.0968 9.9615 9.50694 9.99984C9.11619 10.0227 8.57225 10.0457 8.28878 10.0457H7.78314V8.42172C7.78314 6.79767 7.86741 3.35039 7.92871 2.81414L7.95935 2.5307Z" fill="white"/>
</svg>
